#pragma once

#include "pitches.h"

const int tetrisMelody[] = {
  NOTE_E5, 4,  NOTE_B4, 8,  NOTE_C5, 8,  NOTE_D5, 4,  NOTE_C5, 8,  NOTE_B4, 8,
  NOTE_A4, 4,  NOTE_A4, 8,  NOTE_C5, 8,  NOTE_E5, 4,  NOTE_D5, 8,  NOTE_C5, 8,
  NOTE_B4, -4, NOTE_C5, 8,  NOTE_D5, 4,  NOTE_E5, 4,
  NOTE_C5, 4,  NOTE_A4, 4,  NOTE_A4, 4,  REST,    4,

  REST,    8,  NOTE_D5, 4,  NOTE_F5, 8,  NOTE_A5, 4,  NOTE_G5, 8,  NOTE_F5, 8,
  NOTE_E5, -4, NOTE_C5, 8,  NOTE_E5, 4,  NOTE_D5, 8,  NOTE_C5, 8,
  NOTE_B4, 4,  NOTE_B4, 8,  NOTE_C5, 8,  NOTE_D5, 4,  NOTE_E5, 4,
  NOTE_C5, 4,  NOTE_A4, 4,  NOTE_A4, 4,  REST,    4,

  NOTE_E5, 2,  NOTE_C5, 2,
  NOTE_D5, 2,  NOTE_B4, 2,
  NOTE_C5, 2,  NOTE_A4, 2,
  NOTE_B4, 1,

  NOTE_E5, 2,  NOTE_C5, 2,
  NOTE_D5, 2,  NOTE_B4, 2,
  NOTE_C5, 4,  NOTE_E5, 4,  NOTE_A5, 2,
  NOTE_GS5,1,

  NOTE_E5, 4,  NOTE_B4, 8,  NOTE_C5, 8,  NOTE_D5, 4,  NOTE_C5, 8,  NOTE_B4, 8,
  NOTE_A4, 4,  NOTE_A4, 8,  NOTE_C5, 8,  NOTE_E5, 4,  NOTE_D5, 8,  NOTE_C5, 8,
  NOTE_B4, -4, NOTE_C5, 8,  NOTE_D5, 4,  NOTE_E5, 4,
  NOTE_C5, 4,  NOTE_A4, 4,  NOTE_A4, 4,  REST,    4,

  REST,    8,  NOTE_D5, 4,  NOTE_F5, 8,  NOTE_A5, 4,  NOTE_G5, 8,  NOTE_F5, 8,
  REST,    8,  NOTE_E5, 4,  NOTE_C5, 8,  NOTE_E5, 4,  NOTE_D5, 8,  NOTE_C5, 8,
  REST,    8,  NOTE_B4, 4,  NOTE_C5, 8,  NOTE_D5, 4,  NOTE_E5, 4,
  REST,    8,  NOTE_C5, 4,  NOTE_A4, 8,  NOTE_A4, 4,  REST,    4,
};

const Song TETRIS_SONG = {
  tetrisMelody,
  sizeof(tetrisMelody) / sizeof(tetrisMelody[0]),
  144
};

const int marioMelody[] = {
  NOTE_E5,8, NOTE_E5,8, REST,8, NOTE_E5,8, REST,8, NOTE_C5,8, NOTE_E5,8, //1
  NOTE_G5,4, REST,4, NOTE_G4,8, REST,4, 
  NOTE_C5,-4, NOTE_G4,8, REST,4, NOTE_E4,-4, // 3
  NOTE_A4,4, NOTE_B4,4, NOTE_AS4,8, NOTE_A4,4,
  NOTE_G4,-8, NOTE_E5,-8, NOTE_G5,-8, NOTE_A5,4, NOTE_F5,8, NOTE_G5,8,
  REST,8, NOTE_E5,4,NOTE_C5,8, NOTE_D5,8, NOTE_B4,-4,
  NOTE_C5,-4, NOTE_G4,8, REST,4, NOTE_E4,-4, // repeats from 3
  NOTE_A4,4, NOTE_B4,4, NOTE_AS4,8, NOTE_A4,4,
  NOTE_G4,-8, NOTE_E5,-8, NOTE_G5,-8, NOTE_A5,4, NOTE_F5,8, NOTE_G5,8,
  REST,8, NOTE_E5,4,NOTE_C5,8, NOTE_D5,8, NOTE_B4,-4,

  
  REST,4, NOTE_G5,8, NOTE_FS5,8, NOTE_F5,8, NOTE_DS5,4, NOTE_E5,8,//7
  REST,8, NOTE_GS4,8, NOTE_A4,8, NOTE_C4,8, REST,8, NOTE_A4,8, NOTE_C5,8, NOTE_D5,8,
  REST,4, NOTE_DS5,4, REST,8, NOTE_D5,-4,
  NOTE_C5,2, REST,2,

  REST,4, NOTE_G5,8, NOTE_FS5,8, NOTE_F5,8, NOTE_DS5,4, NOTE_E5,8,//repeats from 7
  REST,8, NOTE_GS4,8, NOTE_A4,8, NOTE_C4,8, REST,8, NOTE_A4,8, NOTE_C5,8, NOTE_D5,8,
  REST,4, NOTE_DS5,4, REST,8, NOTE_D5,-4,
  NOTE_C5,2, REST,2,

  NOTE_C5,8, NOTE_C5,4, NOTE_C5,8, REST,8, NOTE_C5,8, NOTE_D5,4,//11
  NOTE_E5,8, NOTE_C5,4, NOTE_A4,8, NOTE_G4,2,

  NOTE_C5,8, NOTE_C5,4, NOTE_C5,8, REST,8, NOTE_C5,8, NOTE_D5,8, NOTE_E5,8,//13
  REST,1, 
  NOTE_C5,8, NOTE_C5,4, NOTE_C5,8, REST,8, NOTE_C5,8, NOTE_D5,4,
  NOTE_E5,8, NOTE_C5,4, NOTE_A4,8, NOTE_G4,2,
  NOTE_E5,8, NOTE_E5,8, REST,8, NOTE_E5,8, REST,8, NOTE_C5,8, NOTE_E5,4,
  NOTE_G5,4, REST,4, NOTE_G4,4, REST,4, 
  NOTE_C5,-4, NOTE_G4,8, REST,4, NOTE_E4,-4, // 19
  
  NOTE_A4,4, NOTE_B4,4, NOTE_AS4,8, NOTE_A4,4,
  NOTE_G4,-8, NOTE_E5,-8, NOTE_G5,-8, NOTE_A5,4, NOTE_F5,8, NOTE_G5,8,
  REST,8, NOTE_E5,4, NOTE_C5,8, NOTE_D5,8, NOTE_B4,-4,

  NOTE_C5,-4, NOTE_G4,8, REST,4, NOTE_E4,-4, // repeats from 19
  NOTE_A4,4, NOTE_B4,4, NOTE_AS4,8, NOTE_A4,4,
  NOTE_G4,-8, NOTE_E5,-8, NOTE_G5,-8, NOTE_A5,4, NOTE_F5,8, NOTE_G5,8,
  REST,8, NOTE_E5,4, NOTE_C5,8, NOTE_D5,8, NOTE_B4,-4,

  NOTE_E5,8, NOTE_C5,4, NOTE_G4,8, REST,4, NOTE_GS4,4,//23
  NOTE_A4,8, NOTE_F5,4, NOTE_F5,8, NOTE_A4,2,
  NOTE_D5,-8, NOTE_A5,-8, NOTE_A5,-8, NOTE_A5,-8, NOTE_G5,-8, NOTE_F5,-8,
  
  NOTE_E5,8, NOTE_C5,4, NOTE_A4,8, NOTE_G4,2, //26
  NOTE_E5,8, NOTE_C5,4, NOTE_G4,8, REST,4, NOTE_GS4,4,
  NOTE_A4,8, NOTE_F5,4, NOTE_F5,8, NOTE_A4,2,
  NOTE_B4,8, NOTE_F5,4, NOTE_F5,8, NOTE_F5,-8, NOTE_E5,-8, NOTE_D5,-8,
  NOTE_C5,8, NOTE_E4,4, NOTE_E4,8, NOTE_C4,2,

  NOTE_E5,8, NOTE_C5,4, NOTE_G4,8, REST,4, NOTE_GS4,4,//repeats from 23
  NOTE_A4,8, NOTE_F5,4, NOTE_F5,8, NOTE_A4,2,
  NOTE_D5,-8, NOTE_A5,-8, NOTE_A5,-8, NOTE_A5,-8, NOTE_G5,-8, NOTE_F5,-8,
  
  NOTE_E5,8, NOTE_C5,4, NOTE_A4,8, NOTE_G4,2, //26
  NOTE_E5,8, NOTE_C5,4, NOTE_G4,8, REST,4, NOTE_GS4,4,
  NOTE_A4,8, NOTE_F5,4, NOTE_F5,8, NOTE_A4,2,
  NOTE_B4,8, NOTE_F5,4, NOTE_F5,8, NOTE_F5,-8, NOTE_E5,-8, NOTE_D5,-8,
  NOTE_C5,8, NOTE_E4,4, NOTE_E4,8, NOTE_C4,2,
  NOTE_C5,8, NOTE_C5,4, NOTE_C5,8, REST,8, NOTE_C5,8, NOTE_D5,8, NOTE_E5,8,
  REST,1,

  NOTE_C5,8, NOTE_C5,4, NOTE_C5,8, REST,8, NOTE_C5,8, NOTE_D5,4, //33
  NOTE_E5,8, NOTE_C5,4, NOTE_A4,8, NOTE_G4,2,
  NOTE_E5,8, NOTE_E5,8, REST,8, NOTE_E5,8, REST,8, NOTE_C5,8, NOTE_E5,4,
  NOTE_G5,4, REST,4, NOTE_G4,4, REST,4, 
  NOTE_E5,8, NOTE_C5,4, NOTE_G4,8, REST,4, NOTE_GS4,4,
  NOTE_A4,8, NOTE_F5,4, NOTE_F5,8, NOTE_A4,2,
  NOTE_D5,-8, NOTE_A5,-8, NOTE_A5,-8, NOTE_A5,-8, NOTE_G5,-8, NOTE_F5,-8,
  
  NOTE_E5,8, NOTE_C5,4, NOTE_A4,8, NOTE_G4,2, //40
  NOTE_E5,8, NOTE_C5,4, NOTE_G4,8, REST,4, NOTE_GS4,4,
  NOTE_A4,8, NOTE_F5,4, NOTE_F5,8, NOTE_A4,2,
  NOTE_B4,8, NOTE_F5,4, NOTE_F5,8, NOTE_F5,-8, NOTE_E5,-8, NOTE_D5,-8,
  NOTE_C5,8, NOTE_E4,4, NOTE_E4,8, NOTE_C4,2,
  
  //game over sound
  NOTE_C5,-4, NOTE_G4,-4, NOTE_E4,4, //45
  NOTE_A4,-8, NOTE_B4,-8, NOTE_A4,-8, NOTE_GS4,-8, NOTE_AS4,-8, NOTE_GS4,-8,
  NOTE_G4,8, NOTE_D4,8, NOTE_E4,-2,  
};

const Song MARIO_SONG = {
  marioMelody,
  sizeof(marioMelody) / sizeof(marioMelody[0]),
  200
};

const int zeldaMelody[] = {
  NOTE_AS4,4,  NOTE_F4,-4,  NOTE_AS4,8,  NOTE_AS4,16,  NOTE_C5,16, NOTE_D5,16, NOTE_DS5,16,//7
  NOTE_F5,2,  NOTE_F5,8,  NOTE_F5,8,  NOTE_F5,8,  NOTE_FS5,16, NOTE_GS5,16,
  NOTE_AS5,-2,  NOTE_AS5,8,  NOTE_AS5,8,  NOTE_GS5,8,  NOTE_FS5,16,
  NOTE_GS5,-8,  NOTE_FS5,16,  NOTE_F5,2,  NOTE_F5,4, 

  NOTE_DS5,-8, NOTE_F5,16, NOTE_FS5,2, NOTE_F5,8, NOTE_DS5,8, //11
  NOTE_CS5,-8, NOTE_DS5,16, NOTE_F5,2, NOTE_DS5,8, NOTE_CS5,8,
  NOTE_C5,-8, NOTE_D5,16, NOTE_E5,2, NOTE_G5,8, 
  NOTE_F5,16, NOTE_F4,16, NOTE_F4,16, NOTE_F4,16,NOTE_F4,16,NOTE_F4,16,NOTE_F4,16,NOTE_F4,16,NOTE_F4,8, NOTE_F4,16,NOTE_F4,8,

  NOTE_AS4,4,  NOTE_F4,-4,  NOTE_AS4,8,  NOTE_AS4,16,  NOTE_C5,16, NOTE_D5,16, NOTE_DS5,16,//15
  NOTE_F5,2,  NOTE_F5,8,  NOTE_F5,8,  NOTE_F5,8,  NOTE_FS5,16, NOTE_GS5,16,
  NOTE_AS5,-2, NOTE_CS6,4,
  NOTE_C6,4, NOTE_A5,2, NOTE_F5,4,
  NOTE_FS5,-2, NOTE_AS5,4,
  NOTE_A5,4, NOTE_F5,2, NOTE_F5,4,

  NOTE_FS5,-2, NOTE_AS5,4,
  NOTE_A5,4, NOTE_F5,2, NOTE_D5,4,
  NOTE_DS5,-2, NOTE_FS5,4,
  NOTE_F5,4, NOTE_CS5,2, NOTE_AS4,4,
  NOTE_C5,-8, NOTE_D5,16, NOTE_E5,2, NOTE_G5,8, 
  NOTE_F5,16, NOTE_F4,16, NOTE_F4,16, NOTE_F4,16,NOTE_F4,16,NOTE_F4,16,NOTE_F4,16,NOTE_F4,16,NOTE_F4,8, NOTE_F4,16,NOTE_F4,8
};

const Song ZELDA_SONG = {
  zeldaMelody,
  sizeof(zeldaMelody) / sizeof(zeldaMelody[0]),
  88
};

const int starWarsMelody[] = {
  NOTE_AS4,8, NOTE_AS4,8, NOTE_AS4,8,//1
  NOTE_F5,2, NOTE_C6,2,
  NOTE_AS5,8, NOTE_A5,8, NOTE_G5,8, NOTE_F6,2, NOTE_C6,4,  
  NOTE_AS5,8, NOTE_A5,8, NOTE_G5,8, NOTE_F6,2, NOTE_C6,4,  
  NOTE_AS5,8, NOTE_A5,8, NOTE_AS5,8, NOTE_G5,2, NOTE_C5,8, NOTE_C5,8, NOTE_C5,8,
  NOTE_F5,2, NOTE_C6,2,
  NOTE_AS5,8, NOTE_A5,8, NOTE_G5,8, NOTE_F6,2, NOTE_C6,4,  
  
  NOTE_AS5,8, NOTE_A5,8, NOTE_G5,8, NOTE_F6,2, NOTE_C6,4, //8  
  NOTE_AS5,8, NOTE_A5,8, NOTE_AS5,8, NOTE_G5,2, NOTE_C5,-8, NOTE_C5,16, 
  NOTE_D5,-4, NOTE_D5,8, NOTE_AS5,8, NOTE_A5,8, NOTE_G5,8, NOTE_F5,8,
  NOTE_F5,8, NOTE_G5,8, NOTE_A5,8, NOTE_G5,4, NOTE_D5,8, NOTE_E5,4,NOTE_C5,-8, NOTE_C5,16,
  NOTE_D5,-4, NOTE_D5,8, NOTE_AS5,8, NOTE_A5,8, NOTE_G5,8, NOTE_F5,8,
  
  NOTE_C6,-8, NOTE_G5,16, NOTE_G5,2, REST,8, NOTE_C5,8,//13
  NOTE_D5,-4, NOTE_D5,8, NOTE_AS5,8, NOTE_A5,8, NOTE_G5,8, NOTE_F5,8,
  NOTE_F5,8, NOTE_G5,8, NOTE_A5,8, NOTE_G5,4, NOTE_D5,8, NOTE_E5,4,NOTE_C6,-8, NOTE_C6,16,
  NOTE_F6,4, NOTE_DS6,8, NOTE_CS6,4, NOTE_C6,8, NOTE_AS5,4, NOTE_GS5,8, NOTE_G5,4, NOTE_F5,8,
  NOTE_C6,1
};

const Song STAR_WARS_SONG = {
  starWarsMelody,
  sizeof(starWarsMelody) / sizeof(starWarsMelody[0]),
  108
};

const int birthdayMelody[] = {
  NOTE_C4,4, NOTE_C4,8, 
  NOTE_D4,-4, NOTE_C4,-4, NOTE_F4,-4,
  NOTE_E4,-2, NOTE_C4,4, NOTE_C4,8, 
  NOTE_D4,-4, NOTE_C4,-4, NOTE_G4,-4,
  NOTE_F4,-2, NOTE_C4,4, NOTE_C4,8,

  NOTE_C5,-4, NOTE_A4,-4, NOTE_F4,-4, 
  NOTE_E4,-4, NOTE_D4,-4, NOTE_AS4,4, NOTE_AS4,8,
  NOTE_A4,-4, NOTE_F4,-4, NOTE_G4,-4,
  NOTE_F4,-2,
};

const Song BIRTHDAY_SONG = {
  birthdayMelody,
  sizeof(birthdayMelody) / sizeof(birthdayMelody[0]),
  140
};

const int christmasMelody[] = {
  NOTE_C5,4, //1
  NOTE_F5,4, NOTE_F5,8, NOTE_G5,8, NOTE_F5,8, NOTE_E5,8,
  NOTE_D5,4, NOTE_D5,4, NOTE_D5,4,
  NOTE_G5,4, NOTE_G5,8, NOTE_A5,8, NOTE_G5,8, NOTE_F5,8,
  NOTE_E5,4, NOTE_C5,4, NOTE_C5,4,
  NOTE_A5,4, NOTE_A5,8, NOTE_AS5,8, NOTE_A5,8, NOTE_G5,8,
  NOTE_F5,4, NOTE_D5,4, NOTE_C5,8, NOTE_C5,8,
  NOTE_D5,4, NOTE_G5,4, NOTE_E5,4,

  NOTE_F5,2, NOTE_C5,4, //8 
  NOTE_F5,4, NOTE_F5,8, NOTE_G5,8, NOTE_F5,8, NOTE_E5,8,
  NOTE_D5,4, NOTE_D5,4, NOTE_D5,4,
  NOTE_G5,4, NOTE_G5,8, NOTE_A5,8, NOTE_G5,8, NOTE_F5,8,
  NOTE_E5,4, NOTE_C5,4, NOTE_C5,4,
  NOTE_A5,4, NOTE_A5,8, NOTE_AS5,8, NOTE_A5,8, NOTE_G5,8,
  NOTE_F5,4, NOTE_D5,4, NOTE_C5,8, NOTE_C5,8,
  NOTE_D5,4, NOTE_G5,4, NOTE_E5,4,
  NOTE_F5,2, NOTE_C5,4,

  NOTE_F5,4, NOTE_F5,4, NOTE_F5,4,//17
  NOTE_E5,2, NOTE_E5,4,
  NOTE_F5,4, NOTE_E5,4, NOTE_D5,4,
  NOTE_C5,2, NOTE_A5,4,
  NOTE_AS5,4, NOTE_A5,4, NOTE_G5,4,
  NOTE_C6,4, NOTE_C5,4, NOTE_C5,8, NOTE_C5,8,
  NOTE_D5,4, NOTE_G5,4, NOTE_E5,4,
  NOTE_F5,2, NOTE_C5,4, 
  NOTE_F5,4, NOTE_F5,8, NOTE_G5,8, NOTE_F5,8, NOTE_E5,8,
  NOTE_D5,4, NOTE_D5,4, NOTE_D5,4,
  
  NOTE_G5,4, NOTE_G5,8, NOTE_A5,8, NOTE_G5,8, NOTE_F5,8, //27
  NOTE_E5,4, NOTE_C5,4, NOTE_C5,4,
  NOTE_A5,4, NOTE_A5,8, NOTE_AS5,8, NOTE_A5,8, NOTE_G5,8,
  NOTE_F5,4, NOTE_D5,4, NOTE_C5,8, NOTE_C5,8,
  NOTE_D5,4, NOTE_G5,4, NOTE_E5,4,
  NOTE_F5,2, NOTE_C5,4,
  NOTE_F5,4, NOTE_F5,4, NOTE_F5,4,
  NOTE_E5,2, NOTE_E5,4,
  NOTE_F5,4, NOTE_E5,4, NOTE_D5,4,
  
  NOTE_C5,2, NOTE_A5,4,//36
  NOTE_AS5,4, NOTE_A5,4, NOTE_G5,4,
  NOTE_C6,4, NOTE_C5,4, NOTE_C5,8, NOTE_C5,8,
  NOTE_D5,4, NOTE_G5,4, NOTE_E5,4,
  NOTE_F5,2, NOTE_C5,4, 
  NOTE_F5,4, NOTE_F5,8, NOTE_G5,8, NOTE_F5,8, NOTE_E5,8,
  NOTE_D5,4, NOTE_D5,4, NOTE_D5,4,
  NOTE_G5,4, NOTE_G5,8, NOTE_A5,8, NOTE_G5,8, NOTE_F5,8, 
  NOTE_E5,4, NOTE_C5,4, NOTE_C5,4,
  
  NOTE_A5,4, NOTE_A5,8, NOTE_AS5,8, NOTE_A5,8, NOTE_G5,8,//45
  NOTE_F5,4, NOTE_D5,4, NOTE_C5,8, NOTE_C5,8,
  NOTE_D5,4, NOTE_G5,4, NOTE_E5,4,
  NOTE_F5,2, NOTE_C5,4,
  NOTE_F5,4, NOTE_F5,8, NOTE_G5,8, NOTE_F5,8, NOTE_E5,8,
  NOTE_D5,4, NOTE_D5,4, NOTE_D5,4,
  NOTE_G5,4, NOTE_G5,8, NOTE_A5,8, NOTE_G5,8, NOTE_F5,8,
  NOTE_E5,4, NOTE_C5,4, NOTE_C5,4,
  
  NOTE_A5,4, NOTE_A5,8, NOTE_AS5,8, NOTE_A5,8, NOTE_G5,8, //53
  NOTE_F5,4, NOTE_D5,4, NOTE_C5,8, NOTE_C5,8,
  NOTE_D5,4, NOTE_G5,4, NOTE_E5,4,
  NOTE_F5,2, REST,4
};

const Song CHRISTMAS_SONG = {
  christmasMelody,
  sizeof(christmasMelody) / sizeof(christmasMelody[0]),
  140
};

const Song ALL_SONGS[] = { TETRIS_SONG, MARIO_SONG, ZELDA_SONG, STAR_WARS_SONG, BIRTHDAY_SONG, CHRISTMAS_SONG };
const int NB_SONGS = sizeof(ALL_SONGS) / sizeof(Song);